<svg width="512" height="512" viewBox="0 0 512 512" fill="none" xmlns="http://www.w3.org/2000/svg">
<path d="M96 416H256C277.217 416 297.566 424.429 312.569 439.431C327.571 454.434 336 474.783 336 496H16C16 474.783 24.4285 454.434 39.4315 439.431C54.4344 424.429 74.7827 416 96 416Z" fill="#3B5892"/>
<path d="M288 448V422.704C277.912 418.281 267.016 415.998 256 416H96.0001C80.4382 416.005 65.2156 420.548 52.197 429.074C39.1783 437.6 28.9289 449.737 22.7041 464H272C276.244 464 280.313 462.314 283.314 459.314C286.314 456.313 288 452.243 288 448Z" fill="#4C6CB5"/>
<path d="M200 88H40V104H200V88Z" fill="#E2E7F6"/>
<path d="M77.6562 157.656L66.3442 146.344L90.3442 122.344C91.8442 120.844 93.8787 120 96.0002 120H184V136H99.3122L77.6562 157.656Z" fill="#E2E7F6"/>
<path d="M408 456C456.601 456 496 416.601 496 368C496 319.399 456.601 280 408 280C359.399 280 320 319.399 320 368C320 416.601 359.399 456 408 456Z" fill="#2765BA"/>
<path d="M472 360C471.994 343.699 467.457 327.72 458.895 313.848C450.332 299.977 438.082 288.759 423.512 281.448C402.708 277.702 381.25 281.577 363.07 292.363C344.891 303.149 331.205 320.124 324.522 340.179C317.838 360.233 318.604 382.024 326.679 401.56C334.753 421.096 349.596 437.068 368.488 446.552C381.159 448.885 394.188 448.396 406.649 445.12C419.109 441.843 430.694 435.86 440.578 427.595C450.462 419.33 458.403 408.988 463.834 397.305C469.265 385.621 472.053 372.884 472 360Z" fill="#2F80ED"/>
<path d="M192 256H352C367.143 255.967 381.784 250.566 393.32 240.756C404.856 230.946 412.54 217.364 415.006 202.423C417.472 187.482 414.561 172.151 406.789 159.154C399.017 146.158 386.889 136.338 372.56 131.44C367.176 115.505 355.726 102.335 340.693 94.7898C325.66 87.2443 308.259 85.9314 292.264 91.136C284.426 80.0458 273.263 71.7364 260.39 67.4097C247.517 63.083 233.602 62.9633 220.656 67.0679C207.711 71.1726 196.407 79.2887 188.379 90.2424C180.351 101.196 176.016 114.42 176 128C176 128.696 176.08 129.376 176.104 130.072C161.065 133.994 147.967 143.255 139.255 156.125C130.544 168.995 126.813 184.596 128.759 200.016C130.705 215.435 138.196 229.619 149.833 239.921C161.47 250.223 176.458 255.938 192 256Z" fill="#70A3E7"/>
<path d="M413.984 208C418.007 192.367 415.974 175.791 408.292 161.593C400.611 147.395 387.847 136.625 372.56 131.44C367.176 115.505 355.726 102.335 340.693 94.7898C325.66 87.2443 308.259 85.9314 292.264 91.136C284.292 79.8453 272.89 71.4282 259.752 67.136C267.606 55.9585 278.838 47.5951 291.798 43.2752C304.758 38.9552 318.762 38.9064 331.752 43.136C339.592 32.0527 350.754 23.7498 363.624 19.4275C376.494 15.1052 390.405 14.9875 403.346 19.0913C416.287 23.1951 427.588 31.3079 435.615 42.2569C443.642 53.2059 447.979 66.4238 448 80C448 80.696 447.92 81.376 447.896 82.072C462.935 85.9942 476.032 95.2547 484.744 108.125C493.456 120.995 497.187 136.596 495.241 152.016C493.294 167.435 485.804 181.619 474.167 191.921C462.53 202.223 447.542 207.938 432 208H413.984Z" fill="#2F80ED"/>
<path d="M208 392.512C198.057 397.453 187.103 400.016 176 400C164.897 400.016 153.943 397.453 144 392.512V416C144 424.487 147.371 432.626 153.373 438.627C159.374 444.629 167.513 448 176 448C184.487 448 192.626 444.629 198.627 438.627C204.629 432.626 208 424.487 208 416V392.512Z" fill="#FFC897"/>
<path d="M248 288H264L270.872 253.656C271.623 249.894 272.001 246.068 272 242.232C272 234.585 270.494 227.013 267.567 219.948C264.641 212.883 260.352 206.463 254.944 201.056C249.537 195.648 243.117 191.359 236.052 188.433C228.987 185.506 221.415 184 213.768 184H196C192.817 184 189.765 182.736 187.515 180.485C185.264 178.235 184 175.183 184 172C184 168.817 182.736 165.765 180.485 163.515C178.235 161.264 175.183 160 172 160H147.2C129.377 160 112.285 167.08 99.6824 179.682C87.08 192.285 80 209.377 80 227.2C79.9997 230.38 80.2243 233.556 80.672 236.704L88 288H104V280.568C104 269.961 108.213 259.789 115.712 252.288L138.344 229.656C140.137 227.863 142.266 226.44 144.609 225.47C146.953 224.499 149.464 224 152 224C154.536 224 157.047 224.499 159.391 225.47C161.734 226.44 163.863 227.863 165.656 229.656L191.432 255.432C193.706 257.702 196.787 258.976 200 258.976C203.213 258.976 206.294 257.702 208.568 255.432C210.631 253.369 213.368 252.12 216.278 251.912C219.187 251.705 222.074 252.554 224.408 254.304L241.6 267.2C243.587 268.69 245.2 270.623 246.311 272.845C247.422 275.066 248 277.516 248 280V288Z" fill="#22150B"/>
<path d="M248 280V328C248 347.096 240.414 365.409 226.912 378.912C213.409 392.414 195.096 400 176 400C156.904 400 138.591 392.414 125.088 378.912C111.586 365.409 104 347.096 104 328V280.568C104 269.961 108.213 259.789 115.712 252.288L138.344 229.656C140.137 227.863 142.266 226.44 144.609 225.47C146.953 224.499 149.464 224 152 224C154.536 224 157.047 224.499 159.391 225.47C161.734 226.44 163.863 227.863 165.656 229.656L191.432 255.432C193.706 257.702 196.787 258.976 200 258.976C203.213 258.976 206.294 257.702 208.568 255.432C210.631 253.369 213.368 252.12 216.278 251.912C219.187 251.705 222.074 252.554 224.408 254.304L241.6 267.2C243.587 268.69 245.2 270.623 246.311 272.845C247.422 275.066 248 277.516 248 280Z" fill="#FFC897"/>
<path d="M104 288H88C81.6348 288 75.5303 290.529 71.0294 295.029C66.5286 299.53 64 305.635 64 312C64 318.365 66.5286 324.47 71.0294 328.971C75.5303 333.471 81.6348 336 88 336H104" fill="#FFC897"/>
<path d="M248 288H264C270.365 288 276.47 290.529 280.971 295.029C285.471 299.53 288 305.635 288 312C288 318.365 285.471 324.47 280.971 328.971C276.47 333.471 270.365 336 264 336H248" fill="#FFC897"/>
<path d="M360 360L408 312L456 360H432V424H384V360H360Z" fill="#F2F2F2"/>
<path d="M32 112C40.8366 112 48 104.837 48 96C48 87.1634 40.8366 80 32 80C23.1634 80 16 87.1634 16 96C16 104.837 23.1634 112 32 112Z" fill="#2F80ED"/>
<path d="M64 48C72.8366 48 80 40.8366 80 32C80 23.1634 72.8366 16 64 16C55.1634 16 48 23.1634 48 32C48 40.8366 55.1634 48 64 48Z" fill="#2F80ED"/>
<path d="M64 176C72.8366 176 80 168.837 80 160C80 151.163 72.8366 144 64 144C55.1634 144 48 151.163 48 160C48 168.837 55.1634 176 64 176Z" fill="#2F80ED"/>
<path d="M256 408H216V397.176C225.788 391.521 234.269 383.859 240.887 374.695C247.505 365.53 252.11 355.07 254.4 344H264C271.639 344.003 279.025 341.266 284.817 336.286C290.61 331.307 294.424 324.414 295.566 316.861C296.709 309.309 295.104 301.596 291.044 295.126C286.984 288.656 280.738 283.856 273.44 281.6L276.96 264H352C366.873 263.974 381.373 259.346 393.512 250.752C405.651 242.158 414.833 230.019 419.8 216H432C448.962 215.958 465.365 209.929 478.317 198.975C491.269 188.021 499.937 172.847 502.794 156.127C505.651 139.406 502.512 122.214 493.933 107.582C485.353 92.949 471.882 81.8155 455.896 76.144C455.13 61.6923 450.025 47.8074 441.246 36.3023C432.467 24.7973 420.422 16.2069 406.686 11.653C392.949 7.09918 378.158 6.79347 364.245 10.7758C350.332 14.7582 337.943 22.8435 328.696 33.976C315.66 30.8499 302.009 31.449 289.297 35.7051C276.585 39.9611 265.325 47.7029 256.8 58.048C251.3 56.7042 245.661 56.0168 240 56H99.3118L85.5998 42.28C87.1655 39.0784 87.986 35.5639 87.9998 32C87.9998 27.2532 86.5922 22.6131 83.9551 18.6663C81.3179 14.7195 77.5696 11.6434 73.1842 9.82688C68.7988 8.01038 63.9732 7.5351 59.3176 8.46115C54.6621 9.38719 50.3857 11.673 47.0292 15.0294C43.6728 18.3859 41.387 22.6623 40.461 27.3178C39.5349 31.9734 40.0102 36.799 41.8267 41.1844C43.6432 45.5698 46.7193 49.3181 50.6661 51.9553C54.6129 54.5924 59.2531 56 63.9998 56C67.5637 55.9862 71.0782 55.1657 74.2798 53.6L90.3438 69.664C91.8451 71.1615 93.8794 72.0017 95.9998 72H194.84C189.202 76.5727 184.283 81.9662 180.248 88H54.5278C52.6406 82.6623 48.9273 78.1636 44.044 75.2989C39.1607 72.4343 33.4219 71.3883 27.8419 72.3456C22.262 73.303 17.2001 76.2022 13.551 80.5307C9.90183 84.8593 7.90039 90.3385 7.90039 96C7.90039 101.661 9.90183 107.141 13.551 111.469C17.2001 115.798 22.262 118.697 27.8419 119.654C33.4219 120.612 39.1607 119.566 44.044 116.701C48.9273 113.836 52.6406 109.338 54.5278 104H172.128C170.323 109.179 169.118 114.547 168.536 120H95.9998C93.8783 120 91.8438 120.844 90.3438 122.344L74.2798 138.4C71.0782 136.834 67.5637 136.014 63.9998 136C59.2531 136 54.6129 137.408 50.6661 140.045C46.7193 142.682 43.6432 146.43 41.8267 150.816C40.0102 155.201 39.5349 160.027 40.461 164.682C41.387 169.338 43.6728 173.614 47.0292 176.971C50.3857 180.327 54.6621 182.613 59.3176 183.539C63.9732 184.465 68.7988 183.99 73.1842 182.173C77.5696 180.357 81.3179 177.28 83.9551 173.334C86.5922 169.387 87.9998 164.747 87.9998 160C87.986 156.436 87.1655 152.922 85.5998 149.72L99.3118 136H146.952C140.713 141.009 135.351 147.022 131.088 153.792C112.552 157.856 96.2403 168.783 85.4283 184.378C74.6164 199.972 70.1049 219.08 72.7998 237.864L79.0238 281.456C71.6489 283.61 65.2987 288.353 61.1395 294.813C56.9803 301.273 55.2914 309.016 56.3828 316.621C57.4743 324.227 61.2729 331.183 67.081 336.212C72.8891 341.242 80.3167 344.007 87.9998 344H97.5998C99.8896 355.07 104.495 365.53 111.113 374.695C117.731 383.859 126.212 391.521 136 397.176V408H95.9998C72.6692 408.028 50.302 417.308 33.8048 433.805C17.3076 450.302 8.02733 472.669 7.99981 496C7.99981 498.122 8.84266 500.157 10.343 501.657C11.8432 503.157 13.8781 504 15.9998 504H336C338.122 504 340.156 503.157 341.657 501.657C343.157 500.157 344 498.122 344 496C343.972 472.669 334.692 450.302 318.195 433.805C301.698 417.308 279.33 408.028 256 408ZM55.9998 32C55.9998 30.4177 56.469 28.871 57.3481 27.5554C58.2271 26.2398 59.4765 25.2145 60.9383 24.609C62.4002 24.0035 64.0087 23.845 65.5605 24.1537C67.1124 24.4624 68.5378 25.2243 69.6567 26.3431C70.7755 27.462 71.5374 28.8874 71.8461 30.4393C72.1548 31.9911 71.9963 33.5996 71.3908 35.0615C70.7853 36.5233 69.76 37.7727 68.4444 38.6517C67.1288 39.5308 65.5821 40 63.9998 40C61.8781 40 59.8432 39.1571 58.343 37.6568C56.8427 36.1566 55.9998 34.1217 55.9998 32ZM31.9998 104C30.4176 104 28.8708 103.531 27.5552 102.652C26.2397 101.773 25.2143 100.523 24.6088 99.0615C24.0033 97.5997 23.8448 95.9911 24.1535 94.4393C24.4622 92.8874 25.2241 91.462 26.343 90.3431C27.4618 89.2243 28.8872 88.4624 30.4391 88.1537C31.9909 87.845 33.5995 88.0035 35.0613 88.609C36.5231 89.2145 37.7725 90.2398 38.6516 91.5554C39.5306 92.871 39.9998 94.4177 39.9998 96C39.9998 98.1217 39.157 100.157 37.6567 101.657C36.1564 103.157 34.1215 104 31.9998 104ZM63.9998 168C62.4176 168 60.8708 167.531 59.5552 166.652C58.2397 165.773 57.2143 164.523 56.6088 163.061C56.0033 161.6 55.8448 159.991 56.1535 158.439C56.4622 156.887 57.2241 155.462 58.343 154.343C59.4618 153.224 60.8872 152.462 62.4391 152.154C63.9909 151.845 65.5995 152.003 67.0613 152.609C68.5231 153.214 69.7725 154.24 70.6516 155.555C71.5306 156.871 71.9998 158.418 71.9998 160C71.9998 162.122 71.157 164.157 69.6567 165.657C68.1564 167.157 66.1215 168 63.9998 168ZM280 312C280 316.243 278.314 320.313 275.314 323.314C272.313 326.314 268.243 328 264 328H256V296H264C268.243 296 272.313 297.686 275.314 300.686C278.314 303.687 280 307.757 280 312ZM329.272 50.744C330.895 51.2703 332.644 51.2638 334.263 50.7255C335.882 50.1872 337.287 49.1453 338.272 47.752C345.141 37.9658 354.965 30.6379 366.303 26.8428C377.642 23.0476 389.898 22.9848 401.274 26.6637C412.65 30.3425 422.549 37.5694 429.518 47.2847C436.488 57 440.161 68.6926 440 80.648L439.928 81.8C439.871 83.6189 440.436 85.4027 441.53 86.8571C442.624 88.3115 444.181 89.3496 445.944 89.8C459.117 93.2229 470.593 101.326 478.226 112.595C485.858 123.864 489.126 137.527 487.417 151.03C485.709 164.533 479.141 176.951 468.942 185.964C458.743 194.977 445.61 199.966 432 200H423.528C425.334 184.349 421.93 168.539 413.842 155.018C405.755 141.497 393.436 131.02 378.792 125.208C372.381 109.183 360.417 96.0008 345.088 88.0689C329.759 80.1371 312.088 77.9858 295.304 82.008C289.105 74.6189 281.489 68.5472 272.904 64.152C280.225 57.0539 289.325 52.0621 299.245 49.7024C309.166 47.3427 319.539 47.7025 329.272 50.744ZM240 72C248.965 72.018 257.795 74.184 265.751 78.3165C273.708 82.449 280.558 88.4278 285.728 95.752C286.713 97.1453 288.117 98.1872 289.737 98.7255C291.356 99.2638 293.105 99.2703 294.728 98.744C308.724 94.1889 323.951 95.3368 337.105 101.939C350.26 108.541 360.28 120.064 364.992 134.008C365.386 135.169 366.042 136.223 366.909 137.09C367.776 137.957 368.831 138.613 369.992 139.008C382.531 143.292 393.145 151.885 399.947 163.258C406.748 174.63 409.296 188.047 407.138 201.121C404.98 214.195 398.255 226.081 388.159 234.664C378.064 243.248 365.251 247.973 352 248H279.712C279.88 246.08 280 244.16 280 242.232C279.981 224.672 272.997 207.837 260.58 195.42C248.163 183.003 231.328 176.019 213.768 176H196C194.939 176 193.922 175.579 193.171 174.828C192.421 174.078 192 173.061 192 172C192 169.374 191.482 166.773 190.477 164.346C189.472 161.92 187.999 159.715 186.142 157.858C184.285 156.001 182.08 154.528 179.653 153.522C177.227 152.517 174.626 152 172 152H152.936C159.943 145.166 168.613 140.279 178.088 137.824C179.851 137.374 181.408 136.336 182.502 134.881C183.595 133.427 184.16 131.643 184.104 129.824L184 128C184.017 113.153 189.922 98.9191 200.421 88.4207C210.919 77.9224 225.153 72.0169 240 72ZM87.9998 328C83.7563 328 79.6867 326.314 76.6861 323.314C73.6855 320.313 71.9998 316.243 71.9998 312C71.9998 307.757 73.6855 303.687 76.6861 300.686C79.6867 297.686 83.7563 296 87.9998 296H95.9998V328H87.9998ZM95.9998 280H94.9118L88.5678 235.6C88.182 232.817 87.9922 230.01 87.9998 227.2C88.0231 211.506 94.2677 196.462 105.365 185.365C116.462 174.268 131.506 168.023 147.2 168H172C173.061 168 174.078 168.421 174.828 169.172C175.578 169.922 176 170.939 176 172C176 174.626 176.517 177.227 177.522 179.654C178.527 182.08 180 184.285 181.858 186.142C183.715 187.999 185.92 189.472 188.346 190.478C190.773 191.483 193.373 192 196 192H213.768C221.2 191.999 228.539 193.647 235.257 196.826C241.975 200.004 247.904 204.634 252.616 210.382C257.328 216.129 260.706 222.851 262.505 230.061C264.305 237.272 264.482 244.793 263.024 252.08L257.44 280H256C255.991 276.276 255.12 272.604 253.454 269.273C251.789 265.942 249.374 263.042 246.4 260.8L229.208 247.904C225.324 245.022 220.537 243.626 215.713 243.969C210.889 244.313 206.348 246.373 202.912 249.776C202.137 250.544 201.091 250.975 200 250.975C198.909 250.975 197.862 250.544 197.088 249.776L171.312 224C166.105 219.041 159.19 216.274 152 216.274C144.809 216.274 137.894 219.041 132.688 224L110.056 246.632C101.165 255.474 96.1154 267.462 95.9998 280ZM112 328V280.568C111.988 276.365 112.81 272.201 114.418 268.318C116.026 264.435 118.388 260.909 121.368 257.944L144 235.312C146.122 233.192 149 232.001 152 232.001C155 232.001 157.877 233.192 160 235.312L185.776 261.088C189.608 264.746 194.702 266.787 200 266.787C205.298 266.787 210.392 264.746 214.224 261.088C214.929 260.394 215.858 259.975 216.845 259.904C217.832 259.834 218.811 260.117 219.608 260.704L236.8 273.6C237.793 274.345 238.6 275.311 239.155 276.422C239.711 277.533 240 278.758 240 280V328C240 344.974 233.257 361.252 221.255 373.255C209.252 385.257 192.974 392 176 392C159.026 392 142.747 385.257 130.745 373.255C118.743 361.252 112 344.974 112 328ZM176 408C184.141 408.005 192.235 406.761 200 404.312V416C200 422.365 197.471 428.47 192.97 432.971C188.469 437.471 182.365 440 176 440C169.635 440 163.53 437.471 159.029 432.971C154.528 428.47 152 422.365 152 416V404.312C159.764 406.761 167.858 408.005 176 408ZM24.4398 488C26.4297 470.407 34.8228 454.162 48.0198 442.359C61.2167 430.556 78.2949 424.021 95.9998 424H136.8C138.636 433.042 143.542 441.172 150.686 447.011C157.83 452.85 166.773 456.04 176 456.04C185.227 456.04 194.17 452.85 201.314 447.011C208.458 441.172 213.364 433.042 215.2 424H256C273.705 424.021 290.783 430.556 303.98 442.359C317.177 454.162 325.57 470.407 327.56 488H24.4398Z" fill="black"/>
<path d="M413.656 306.344C412.156 304.844 410.122 304.002 408 304.002C405.879 304.002 403.844 304.844 402.344 306.344L354.344 354.344C353.226 355.463 352.464 356.888 352.156 358.44C351.847 359.991 352.005 361.6 352.611 363.061C353.216 364.523 354.241 365.772 355.557 366.651C356.872 367.53 358.418 368 360 368H376V424C376 426.122 376.843 428.157 378.343 429.657C379.844 431.157 381.879 432 384 432H432C434.122 432 436.157 431.157 437.657 429.657C439.157 428.157 440 426.122 440 424V368H456C457.582 368 459.129 367.53 460.444 366.651C461.759 365.772 462.784 364.523 463.39 363.061C463.995 361.6 464.153 359.991 463.845 358.44C463.536 356.888 462.775 355.463 461.656 354.344L413.656 306.344ZM432 352C429.879 352 427.844 352.843 426.343 354.343C424.843 355.843 424 357.878 424 360V416H392V360C392 357.878 391.157 355.843 389.657 354.343C388.157 352.843 386.122 352 384 352H379.312L408 323.312L436.688 352H432Z" fill="black"/>
<path d="M408 272C389.013 272 370.452 277.63 354.665 288.179C338.878 298.728 326.574 313.721 319.308 331.262C312.042 348.804 310.14 368.106 313.845 386.729C317.549 405.351 326.692 422.456 340.118 435.882C353.544 449.308 370.649 458.451 389.271 462.155C407.894 465.86 427.196 463.958 444.738 456.692C462.279 449.426 477.273 437.122 487.821 421.335C498.37 405.548 504 386.987 504 368C503.973 342.548 493.849 318.146 475.852 300.148C457.854 282.151 433.452 272.028 408 272ZM408 448C392.178 448 376.71 443.308 363.554 434.518C350.399 425.727 340.145 413.233 334.09 398.615C328.035 383.997 326.45 367.911 329.537 352.393C332.624 336.874 340.243 322.62 351.432 311.431C362.62 300.243 376.874 292.624 392.393 289.537C407.911 286.45 423.997 288.035 438.615 294.09C453.233 300.145 465.727 310.398 474.518 323.554C483.308 336.71 488 352.177 488 368C487.977 389.21 479.541 409.545 464.543 424.543C449.545 439.541 429.21 447.977 408 448Z" fill="black"/>
</svg>
