<svg width="613" height="613" viewBox="0 0 613 613" fill="none" xmlns="http://www.w3.org/2000/svg">
<g clip-path="url(#clip0)">
<path d="M342.346 596.96L596.926 342.381C617.005 322.302 617.005 289.737 596.926 269.658C576.847 249.579 544.282 249.579 524.203 269.658L306.01 487.852L87.8181 269.658C67.7391 249.579 35.1741 249.579 15.0951 269.658C-4.98391 289.737 -4.98391 322.302 15.0951 342.381L269.674 596.96C289.703 617.039 322.267 617.039 342.346 596.96ZM357.762 290.858L570.782 88.744C592.16 68.435 592.16 35.54 570.782 15.231C549.404 -5.07801 514.724 -5.07801 493.32 15.231L319.031 180.602L144.742 15.231C123.363 -5.07801 88.6591 -5.07801 67.2801 15.231C45.9011 35.54 45.9011 68.435 67.2801 88.744L280.3 290.858C301.678 311.167 336.358 311.167 357.762 290.858Z" fill="#2F80ED"/>
</g>
<defs>
<clipPath id="clip0">
<rect width="612.02" height="612.02" fill="white" transform="translate(612.02) rotate(90)"/>
</clipPath>
</defs>
</svg>
