<svg width="481" height="481" viewBox="0 0 481 481" fill="none" xmlns="http://www.w3.org/2000/svg">
<g clip-path="url(#clip0)">
<path d="M250.7 475.922L410.7 331.922C414.092 328.85 416.012 324.562 416.012 320.018V224.018C416.012 217.714 412.3 211.986 406.54 209.394C400.748 206.834 393.996 207.89 389.324 212.114L240.012 346.482L90.7322 212.114C86.0282 207.89 79.2762 206.802 73.5162 209.394C67.7242 211.986 64.0122 217.714 64.0122 224.018V320.018C64.0122 324.562 65.9642 328.85 69.2922 331.922L229.292 475.922C235.372 481.394 244.652 481.394 250.7 475.922Z" fill="#72AEFF"/>
<path d="M250.7 267.922L410.7 123.922C414.092 120.85 416.012 116.562 416.012 112.018V16.018C416.012 9.71401 412.3 3.98601 406.54 1.39401C400.748 -1.16599 393.996 -0.109992 389.324 4.11401L240.012 138.482L90.7322 4.11401C86.0282 -0.109992 79.2762 -1.19799 73.5162 1.39401C67.7242 3.98601 64.0122 9.71401 64.0122 16.018V112.018C64.0122 116.562 65.9642 120.85 69.2922 123.922L229.292 267.922C235.372 273.394 244.652 273.394 250.7 267.922Z" fill="#2F80ED"/>
</g>
<defs>
<clipPath id="clip0">
<rect width="480.026" height="480.026" fill="white" transform="translate(480.025) rotate(90)"/>
</clipPath>
</defs>
</svg>
