<svg width="496" height="496" viewBox="0 0 496 496" fill="none" xmlns="http://www.w3.org/2000/svg">
<path d="M112 400C94.3516 400 80 414.352 80 432C80 449.648 94.3516 464 112 464C129.648 464 144 449.648 144 432C144 414.352 129.648 400 112 400ZM112 448C103.176 448 96 440.824 96 432C96 423.176 103.176 416 112 416C120.824 416 128 423.176 128 432C128 440.824 120.824 448 112 448Z" fill="black"/>
<path d="M384 400C366.352 400 352 414.352 352 432C352 449.648 366.352 464 384 464C401.648 464 416 449.648 416 432C416 414.352 401.648 400 384 400ZM384 448C375.176 448 368 440.824 368 432C368 423.176 375.176 416 384 416C392.824 416 400 423.176 400 432C400 440.824 392.824 448 384 448Z" fill="black"/>
<path d="M472 224H464V208H480V128H422.055L391.441 97.3828C391.777 94.2734 392 91.1367 392 88C392 39.4805 352.52 0 304 0C255.48 0 216 39.4805 216 88C216 102.406 219.551 115.984 225.711 128H176V208H192V224H103.062C85.8242 224 70.5664 234.992 65.1211 251.352L49.6797 297.672L27.3438 305.121C10.9922 310.566 0 325.824 0 343.062V440C0 453.23 10.7695 464 24 464H56.6562C67.7422 483.098 88.3672 496 112 496C135.633 496 156.258 483.098 167.344 464H328.664C339.754 483.098 360.375 496 384.008 496C407.641 496 428.266 483.098 439.352 464H472C485.23 464 496 453.23 496 440V248C496 234.77 485.23 224 472 224ZM472 240C476.406 240 480 243.586 480 248V400H464V240H472ZM384 368V352H448V400H439.344C428.258 380.902 407.625 368 384 368ZM416 208V304H349.77L333.77 256H256V304H240V208H416ZM272 304V272H288V304H272ZM304 272H322.23L332.895 304H304V272ZM448 320V336H208V320H448ZM208 352H272V400H208V352ZM288 352H368V370.105C351.238 374.441 337.152 385.375 328.656 400H288V352ZM448 304H432V208H448V304ZM347.152 143.602C327.238 123.688 325.488 92.3828 341.895 70.457L420.289 148.848C398.359 165.273 367.062 163.504 347.152 143.602ZM304 16C341.543 16 372.434 44.8945 375.68 81.6172L341.496 47.4336L335.84 53.0898C308.289 80.6406 307.848 125.121 334.375 153.297C324.922 157.703 314.586 160 304 160C264.305 160 232 127.703 232 88C232 48.2969 264.305 16 304 16ZM192 144H236.168C252.32 163.527 276.727 176 304 176C319.398 176 334.352 171.992 347.609 164.414C359.473 172.105 373.105 175.969 386.742 175.969C405.184 175.969 423.617 168.953 437.656 154.91L443.312 149.258L438.055 144H464V192H192V144ZM224 208V304H208V208H224ZM32.4062 320.289L62.3281 310.328L80.3047 256.414C83.5664 246.594 92.7188 240 103.062 240H192V400H176V256H109.77C102.871 256 96.7695 260.398 94.5938 266.938L80.8242 308.23C80.2812 309.863 80 311.566 80 313.297V376.656C70.3281 382.273 62.2734 390.328 56.6562 400H16V343.062C16 332.719 22.5938 323.566 32.4062 320.289ZM160 304H99.0977L109.762 272H160V304ZM96 320H160V389.809C148.266 376.473 131.121 368 112 368C106.465 368 101.129 368.777 96 370.105V320ZM24 448C19.5938 448 16 444.414 16 440V416H50.1055C48.7773 421.129 48 426.465 48 432C48 437.535 48.7773 442.871 50.1055 448H24ZM112 480C85.5273 480 64 458.473 64 432C64 405.527 85.5273 384 112 384C138.473 384 160 405.527 160 432C160 458.473 138.473 480 112 480ZM173.895 448C175.223 442.871 176 437.535 176 432C176 426.465 175.223 421.129 173.895 416H322.113C320.777 421.129 320 426.465 320 432C320 437.535 320.777 442.871 322.105 448H173.895ZM384 480C357.527 480 336 458.473 336 432C336 405.527 357.527 384 384 384C410.473 384 432 405.527 432 432C432 458.473 410.473 480 384 480ZM472 448H445.895C447.223 442.871 448 437.535 448 432C448 426.465 447.223 421.129 445.895 416H480V440C480 444.414 476.406 448 472 448Z" fill="#FF7A00"/>
<path d="M304 144V128C281.945 128 264 110.055 264 88H248C248 118.871 273.121 144 304 144Z" fill="black"/>
<path d="M224 368H256V384H224V368Z" fill="black"/>
<path d="M304 368H320V384H304V368Z" fill="black"/>
</svg>
