<svg height="496pt" viewBox="0 0 496 496" width="496pt" xmlns="http://www.w3.org/2000/svg"><path d="m112 400c-17.648438 0-32 14.351562-32 32s14.351562 32 32 32 32-14.351562 32-32-14.351562-32-32-32zm0 48c-8.824219 0-16-7.175781-16-16s7.175781-16 16-16 16 7.175781 16 16-7.175781 16-16 16zm0 0"/><path d="m384 400c-17.648438 0-32 14.351562-32 32s14.351562 32 32 32 32-14.351562 32-32-14.351562-32-32-32zm0 48c-8.824219 0-16-7.175781-16-16s7.175781-16 16-16 16 7.175781 16 16-7.175781 16-16 16zm0 0"/><path d="m472 224h-8v-16h16v-80h-57.945312l-30.613282-30.617188c.335938-3.109374.558594-6.246093.558594-9.382812 0-48.519531-39.480469-88-88-88s-88 39.480469-88 88c0 14.40625 3.550781 27.984375 9.710938 40h-49.710938v80h16v16h-88.9375c-17.238281 0-32.496094 10.992188-37.941406 27.351562l-15.441406 46.320313-22.335938 7.449219c-16.351562 5.445312-27.34375 20.703125-27.34375 37.941406v96.9375c0 13.230469 10.769531 24 24 24h32.65625c11.085938 19.097656 31.710938 32 55.34375 32s44.257812-12.902344 55.34375-32h161.320312c11.089844 19.097656 31.710938 32 55.34375 32 23.632813 0 44.257813-12.902344 55.34375-32h32.648438c13.230469 0 24-10.769531 24-24v-192c0-13.230469-10.769531-24-24-24zm0 16c4.40625 0 8 3.585938 8 8v152h-16v-160zm-88 128v-16h64v48h-8.65625c-11.085938-19.097656-31.71875-32-55.34375-32zm32-160v96h-66.230469l-16-48h-77.769531v48h-16v-96zm-144 96v-32h16v32zm32-32h18.230469l10.664062 32h-28.894531zm144 48v16h-240v-16zm-240 32h64v48h-64zm80 0h80v18.105469c-16.761719 4.335937-30.847656 15.269531-39.34375 29.894531h-40.65625zm160-48h-16v-96h16zm-100.847656-160.398438c-19.914063-19.914062-21.664063-51.21875-5.257813-73.144531l78.394531 78.390625c-21.929687 16.425782-53.226562 14.65625-73.136718-5.246094zm-43.152344-127.601562c37.542969 0 68.433594 28.894531 71.679688 65.617188l-34.183594-34.183594-5.65625 5.65625c-27.550782 27.550781-27.992188 72.03125-1.464844 100.207031-9.453125 4.40625-19.789062 6.703125-30.375 6.703125-39.695312 0-72-32.296875-72-72s32.304688-72 72-72zm-112 128h44.167969c16.152343 19.527344 40.558593 32 67.832031 32 15.398438 0 30.351562-4.007812 43.609375-11.585938 11.863281 7.691407 25.496094 11.554688 39.132813 11.554688 18.441406 0 36.875-7.015625 50.914062-21.058594l5.65625-5.652344-5.257812-5.257812h25.945312v48h-272zm32 64v96h-16v-96zm-191.59375 112.289062 29.921875-9.960937 17.976563-53.914063c3.261718-9.820312 12.414062-16.414062 22.757812-16.414062h88.9375v160h-16v-144h-66.230469c-6.898437 0-13 4.398438-15.175781 10.9375l-13.769531 41.292969c-.542969 1.632812-.824219 3.335937-.824219 5.066406v63.359375c-9.671875 5.617188-17.726562 13.671875-23.34375 23.34375h-40.65625v-56.9375c0-10.34375 6.59375-19.496094 16.40625-22.773438zm127.59375-16.289062h-60.902344l10.664063-32h50.238281zm-64 16h64v69.808594c-11.734375-13.335938-28.878906-21.808594-48-21.808594-5.535156 0-10.871094.777344-16 2.105469zm-72 128c-4.40625 0-8-3.585938-8-8v-24h34.105469c-1.328125 5.128906-2.105469 10.464844-2.105469 16s.777344 10.871094 2.105469 16zm88 32c-26.472656 0-48-21.527344-48-48s21.527344-48 48-48 48 21.527344 48 48-21.527344 48-48 48zm61.894531-32c1.328125-5.128906 2.105469-10.464844 2.105469-16s-.777344-10.871094-2.105469-16h148.21875c-1.335937 5.128906-2.113281 10.464844-2.113281 16s.777344 10.871094 2.105469 16zm210.105469 32c-26.472656 0-48-21.527344-48-48s21.527344-48 48-48 48 21.527344 48 48-21.527344 48-48 48zm88-32h-26.105469c1.328125-5.128906 2.105469-10.464844 2.105469-16s-.777344-10.871094-2.105469-16h34.105469v24c0 4.414062-3.59375 8-8 8zm0 0"/><path d="m304 144v-16c-22.054688 0-40-17.945312-40-40h-16c0 30.871094 25.121094 56 56 56zm0 0"/><path d="m224 368h32v16h-32zm0 0"/><path d="m304 368h16v16h-16zm0 0"/></svg>