<svg width="355" height="213" viewBox="0 0 355 213" fill="none" xmlns="http://www.w3.org/2000/svg">
<g clip-path="url(#clip0)">
<rect width="355" height="213" fill="#1E1F4B"/>
<path d="M110.886 3.17697C64.9945 -13.643 56.3655 -16.6022 0 -37.7136V228.331H355V42.0179C329.21 31.6275 311.548 41.4164 288.079 30.4374C259.624 17.126 238.701 20.8906 220.953 15.2699C172.857 0.0389633 148.606 17.0018 110.886 3.17697Z" fill="#2C2C60"/>
<path d="M111.399 11.0681C63.7263 0.283394 56.3655 -16.6022 0 -37.7136V228.331H355V77.6819C332.921 79.1989 314.398 68.9189 287.566 59.3375C259.552 51.015 232.138 55.9567 215.726 45.7073C181.364 24.2482 162.129 22.5446 111.399 11.0681Z" fill="#191B44"/>
<g filter="url(#filter0_bf)">
<circle cx="72" cy="-103" r="152" fill="#C4C4C4" fill-opacity="0.01"/>
</g>
<g filter="url(#filter1_bf)">
<circle cx="335.5" cy="88.5" r="62.5" fill="#C4C4C4" fill-opacity="0.01"/>
</g>
<path d="M100.945 46.6296C52.8972 37.6666 56.3655 21.1114 0 0V228.331H355V87.1103C315.582 89.8187 270.941 94.7804 221.055 71.8404C181.37 53.591 155.947 56.8898 100.945 46.6296Z" fill="#C92729"/>
<g filter="url(#filter2_f)">
<path d="M100.945 59.7474C52.8972 50.7844 56.3655 34.2292 0 13.1178V228.331H355V101.458C321.078 97.461 271.886 96.9341 215.214 89.16C171.939 83.2236 155.947 70.0076 100.945 59.7474Z" fill="#621313"/>
</g>
<path d="M113.448 54.0084C63.7442 31.0522 42.8377 38.5335 0.409912 49.7041V228.331H355V124.311C302.734 112.731 291.192 102.564 222.285 97.2561C151.777 91.8245 135.046 63.9834 113.448 54.0084Z" fill="#A460E9"/>
<g filter="url(#filter3_f)">
<path d="M113.448 54.0084C63.7442 31.0522 42.8377 38.5335 0.409912 49.7041V228.331H355V130.051C303.149 123.526 291.818 123.292 222.285 110.374C152.758 97.457 135.046 63.9834 113.448 54.0084Z" fill="#8642CB"/>
</g>
<g filter="url(#filter4_bf)">
<circle cx="140" cy="134" r="79" fill="#C4C4C4" fill-opacity="0.01"/>
</g>
<path d="M239.809 118.675C176.466 107.686 162.56 88.099 134.457 65.2815C111.153 46.3599 99.8945 26.4538 87.0078 16.3972C59.3785 -4.85594 20.3551 -2.34463 0.409912 -15.3724V228.331H355V147.165C325.311 151.682 308.903 137.233 289.616 128.513C270.491 121.224 250.837 120.588 239.809 118.675Z" fill="#369DC4"/>
<g filter="url(#filter5_f)">
<path d="M247.393 142.451C183.149 130.546 158.181 121.313 134.457 106.275C119.048 96.5063 108.498 73.9215 87.0078 57.3903C59.3785 36.1371 20.3551 38.6484 0.409912 25.6207V228.331H355V160.898C296.175 147.678 276.703 147.882 247.393 142.451Z" fill="#552691"/>
</g>
<path d="M73.685 122.774C38.147 100.956 35.459 72.8652 0 49.7041V228.331H355V197.689C305.334 182.074 255.901 188.254 187.953 158.438C141.5 138.054 119.585 150.954 73.685 122.774Z" fill="#CA2F30"/>
<g filter="url(#filter6_f)">
<path d="M54.7257 148.907C20.8904 124.532 35.459 134.867 0 111.706V246.368H355V209.167C305.312 188.075 228.766 203.043 155.466 189.9C101.909 180.298 90.9375 174.994 54.7257 148.907Z" fill="#621313"/>
</g>
<g filter="url(#filter7_bf)">
<circle cx="-55" cy="145" r="151" fill="#C4C4C4" fill-opacity="0.01"/>
</g>
<g filter="url(#filter8_bf)">
<circle cx="305" cy="275" r="123" fill="#C4C4C4" fill-opacity="0.01"/>
</g>
<g filter="url(#filter9_d)">
<path d="M114.605 106.461C114.605 111.453 113.68 115.871 111.828 119.715C109.977 123.559 107.34 126.523 103.918 128.609C100.52 130.672 96.6406 131.703 92.2812 131.703C87.9219 131.703 84.0547 130.707 80.6797 128.715C77.3047 126.699 74.668 123.828 72.7695 120.102C70.8945 116.375 69.9102 112.098 69.8164 107.27V104.387C69.8164 99.3711 70.7305 94.9531 72.5586 91.1328C74.4102 87.2891 77.0469 84.3242 80.4688 82.2383C83.9141 80.1523 87.8281 79.1094 92.2109 79.1094C96.5469 79.1094 100.414 80.1406 103.812 82.2031C107.211 84.2656 109.848 87.207 111.723 91.0273C113.621 94.8242 114.582 99.1836 114.605 104.105V106.461ZM102.055 104.316C102.055 99.2305 101.199 95.375 99.4883 92.75C97.8008 90.1016 95.375 88.7773 92.2109 88.7773C86.0234 88.7773 82.7539 93.418 82.4023 102.699L82.3672 106.461C82.3672 111.477 83.1992 115.332 84.8633 118.027C86.5273 120.723 89 122.07 92.2812 122.07C95.3984 122.07 97.8008 120.746 99.4883 118.098C101.176 115.449 102.031 111.641 102.055 106.672V104.316ZM143.434 103.684L139.531 103.402C135.805 103.402 133.414 104.574 132.359 106.918V131H120.512V92.9609H131.621L132.008 97.8477C134 94.1211 136.777 92.2578 140.34 92.2578C141.605 92.2578 142.707 92.3984 143.645 92.6797L143.434 103.684ZM145.508 111.699C145.508 105.676 146.809 100.93 149.41 97.4609C152.012 93.9922 155.645 92.2578 160.309 92.2578C163.707 92.2578 166.566 93.5938 168.887 96.2656V77H180.77V131H170.117L169.52 126.922C167.082 130.109 163.988 131.703 160.238 131.703C155.715 131.703 152.129 129.969 149.48 126.5C146.832 123.031 145.508 118.098 145.508 111.699ZM157.355 112.438C157.355 119.188 159.324 122.562 163.262 122.562C165.887 122.562 167.762 121.461 168.887 119.258V104.773C167.809 102.523 165.957 101.398 163.332 101.398C159.676 101.398 157.695 104.352 157.391 110.258L157.355 112.438ZM205.906 131.703C200.07 131.703 195.348 129.969 191.738 126.5C188.129 123.008 186.324 118.473 186.324 112.895V111.91C186.324 108.02 187.039 104.586 188.469 101.609C189.922 98.6328 192.031 96.3359 194.797 94.7188C197.562 93.0781 200.844 92.2578 204.641 92.2578C209.984 92.2578 214.203 93.9219 217.297 97.25C220.391 100.555 221.938 105.172 221.938 111.102V115.707H198.383C198.805 117.84 199.73 119.516 201.16 120.734C202.59 121.953 204.441 122.562 206.715 122.562C210.465 122.562 213.395 121.25 215.504 118.625L220.918 125.023C219.441 127.062 217.344 128.691 214.625 129.91C211.93 131.105 209.023 131.703 205.906 131.703ZM204.57 101.398C201.102 101.398 199.039 103.695 198.383 108.289H210.336V107.375C210.383 105.477 209.902 104.012 208.895 102.98C207.887 101.926 206.445 101.398 204.57 101.398ZM249.746 103.684L245.844 103.402C242.117 103.402 239.727 104.574 238.672 106.918V131H226.824V92.9609H237.934L238.32 97.8477C240.312 94.1211 243.09 92.2578 246.652 92.2578C247.918 92.2578 249.02 92.3984 249.957 92.6797L249.746 103.684ZM273.934 120.312C273.934 119.305 273.406 118.496 272.352 117.887C271.297 117.277 269.293 116.645 266.34 115.988C263.387 115.332 260.949 114.477 259.027 113.422C257.105 112.344 255.641 111.043 254.633 109.52C253.625 107.996 253.121 106.25 253.121 104.281C253.121 100.789 254.562 97.918 257.445 95.668C260.328 93.3945 264.102 92.2578 268.766 92.2578C273.781 92.2578 277.812 93.3945 280.859 95.668C283.906 97.9414 285.43 100.93 285.43 104.633H273.547C273.547 101.586 271.941 100.062 268.73 100.062C267.488 100.062 266.445 100.414 265.602 101.117C264.758 101.797 264.336 102.652 264.336 103.684C264.336 104.738 264.852 105.594 265.883 106.25C266.914 106.906 268.555 107.445 270.805 107.867C273.078 108.289 275.07 108.793 276.781 109.379C282.5 111.348 285.359 114.875 285.359 119.961C285.359 123.43 283.812 126.254 280.719 128.434C277.648 130.613 273.664 131.703 268.766 131.703C265.508 131.703 262.602 131.117 260.047 129.945C257.492 128.773 255.5 127.18 254.07 125.164C252.641 123.148 251.926 121.027 251.926 118.801H263C263.047 120.559 263.633 121.848 264.758 122.668C265.883 123.465 267.324 123.863 269.082 123.863C270.699 123.863 271.906 123.535 272.703 122.879C273.523 122.223 273.934 121.367 273.934 120.312Z" fill="white"/>
</g>
</g>
<defs>
<filter id="filter0_bf" x="-120" y="-295" width="384" height="384" filterUnits="userSpaceOnUse" color-interpolation-filters="sRGB">
<feFlood flood-opacity="0" result="BackgroundImageFix"/>
<feGaussianBlur in="BackgroundImage" stdDeviation="16"/>
<feComposite in2="SourceAlpha" operator="in" result="effect1_backgroundBlur"/>
<feBlend mode="normal" in="SourceGraphic" in2="effect1_backgroundBlur" result="shape"/>
<feGaussianBlur stdDeviation="20" result="effect2_foregroundBlur"/>
</filter>
<filter id="filter1_bf" x="233" y="-14" width="205" height="205" filterUnits="userSpaceOnUse" color-interpolation-filters="sRGB">
<feFlood flood-opacity="0" result="BackgroundImageFix"/>
<feGaussianBlur in="BackgroundImage" stdDeviation="16"/>
<feComposite in2="SourceAlpha" operator="in" result="effect1_backgroundBlur"/>
<feBlend mode="normal" in="SourceGraphic" in2="effect1_backgroundBlur" result="shape"/>
<feGaussianBlur stdDeviation="20" result="effect2_foregroundBlur"/>
</filter>
<filter id="filter2_f" x="-31.9746" y="-18.8568" width="418.949" height="279.163" filterUnits="userSpaceOnUse" color-interpolation-filters="sRGB">
<feFlood flood-opacity="0" result="BackgroundImageFix"/>
<feBlend mode="normal" in="SourceGraphic" in2="BackgroundImageFix" result="shape"/>
<feGaussianBlur stdDeviation="15.9873" result="effect1_foregroundBlur"/>
</filter>
<filter id="filter3_f" x="-11.888" y="26.7334" width="379.186" height="213.896" filterUnits="userSpaceOnUse" color-interpolation-filters="sRGB">
<feFlood flood-opacity="0" result="BackgroundImageFix"/>
<feBlend mode="normal" in="SourceGraphic" in2="BackgroundImageFix" result="shape"/>
<feGaussianBlur stdDeviation="6.14896" result="effect1_foregroundBlur"/>
</filter>
<filter id="filter4_bf" x="37" y="31" width="206" height="206" filterUnits="userSpaceOnUse" color-interpolation-filters="sRGB">
<feFlood flood-opacity="0" result="BackgroundImageFix"/>
<feGaussianBlur in="BackgroundImage" stdDeviation="8"/>
<feComposite in2="SourceAlpha" operator="in" result="effect1_backgroundBlur"/>
<feBlend mode="normal" in="SourceGraphic" in2="effect1_backgroundBlur" result="shape"/>
<feGaussianBlur stdDeviation="12" result="effect2_foregroundBlur"/>
</filter>
<filter id="filter5_f" x="-36.4839" y="-11.2731" width="428.378" height="276.498" filterUnits="userSpaceOnUse" color-interpolation-filters="sRGB">
<feFlood flood-opacity="0" result="BackgroundImageFix"/>
<feBlend mode="normal" in="SourceGraphic" in2="BackgroundImageFix" result="shape"/>
<feGaussianBlur stdDeviation="18.4469" result="effect1_foregroundBlur"/>
</filter>
<filter id="filter6_f" x="-31.9746" y="79.7315" width="418.949" height="198.611" filterUnits="userSpaceOnUse" color-interpolation-filters="sRGB">
<feFlood flood-opacity="0" result="BackgroundImageFix"/>
<feBlend mode="normal" in="SourceGraphic" in2="BackgroundImageFix" result="shape"/>
<feGaussianBlur stdDeviation="15.9873" result="effect1_foregroundBlur"/>
</filter>
<filter id="filter7_bf" x="-246" y="-46" width="382" height="382" filterUnits="userSpaceOnUse" color-interpolation-filters="sRGB">
<feFlood flood-opacity="0" result="BackgroundImageFix"/>
<feGaussianBlur in="BackgroundImage" stdDeviation="16"/>
<feComposite in2="SourceAlpha" operator="in" result="effect1_backgroundBlur"/>
<feBlend mode="normal" in="SourceGraphic" in2="effect1_backgroundBlur" result="shape"/>
<feGaussianBlur stdDeviation="20" result="effect2_foregroundBlur"/>
</filter>
<filter id="filter8_bf" x="158" y="128" width="294" height="294" filterUnits="userSpaceOnUse" color-interpolation-filters="sRGB">
<feFlood flood-opacity="0" result="BackgroundImageFix"/>
<feGaussianBlur in="BackgroundImage" stdDeviation="8"/>
<feComposite in2="SourceAlpha" operator="in" result="effect1_backgroundBlur"/>
<feBlend mode="normal" in="SourceGraphic" in2="effect1_backgroundBlur" result="shape"/>
<feGaussianBlur stdDeviation="12" result="effect2_foregroundBlur"/>
</filter>
<filter id="filter9_d" x="65.8164" y="75" width="223.613" height="62.7031" filterUnits="userSpaceOnUse" color-interpolation-filters="sRGB">
<feFlood flood-opacity="0" result="BackgroundImageFix"/>
<feColorMatrix in="SourceAlpha" type="matrix" values="0 0 0 0 0 0 0 0 0 0 0 0 0 0 0 0 0 0 127 0"/>
<feOffset dy="2"/>
<feGaussianBlur stdDeviation="2"/>
<feColorMatrix type="matrix" values="0 0 0 0 0 0 0 0 0 0 0 0 0 0 0 0 0 0 0.25 0"/>
<feBlend mode="normal" in2="BackgroundImageFix" result="effect1_dropShadow"/>
<feBlend mode="normal" in="SourceGraphic" in2="effect1_dropShadow" result="shape"/>
</filter>
<clipPath id="clip0">
<rect width="355" height="213" fill="white"/>
</clipPath>
</defs>
</svg>
